<?xml version="1.0" ?><!DOCTYPE svg  PUBLIC '-//W3C//DTD SVG 1.1//EN'  'http://www.w3.org/Graphics/SVG/1.1/DTD/svg11.dtd'><svg width="512px" height="512px" viewBox="0 0 512 512" style="enable-background:new 0 0 512 512;" version="1.1" xml:space="preserve" xmlns="http://www.w3.org/2000/svg" xmlns:xlink="http://www.w3.org/1999/xlink"><g id="_x35_4_x2C__Tag_x2C__Leaf_x2C__Canada_x2C__Sign"><g><path d="M282.82,146.729l27.329-20.955c1.666-1.272,3.945-1.415,5.715-0.291c1.769,1.123,2.649,3.208,2.206,5.256l-17.522,81.03    l33.287-35.453c1.484-1.583,3.821-2.028,5.784-1.099c1.962,0.929,3.101,3.017,2.817,5.169l-4.467,34.002l60.095-9.081    c2.032-0.31,4.048,0.662,5.077,2.443c1.028,1.781,0.861,4.011-0.422,5.619l-37.929,47.544l31.785,13.16    c2.005,0.831,3.246,2.86,3.07,5.023c-0.175,2.164-1.727,3.967-3.839,4.464l-73.557,17.293l18.389,12.852    c1.579,1.104,2.384,3.016,2.068,4.916c-0.314,1.9-1.693,3.451-3.544,3.986c-20.675,5.978-41.852,9.724-63.03,11.154l8.242,67.283    c0.174,1.422-0.27,3.022-1.219,4.095S280.845,407,279.413,407h-48.204c-1.438,0-2.807-0.792-3.756-1.872    c-0.95-1.081-1.388-2.604-1.203-4.03l8.774-67.682c-19.476-1.495-39.097-5.237-58.402-11.103    c-1.787-0.543-3.123-2.048-3.463-3.885s0.372-3.715,1.847-4.862c3.958-3.077,7.928-6.301,11.767-9.416    c1.258-1.021,2.53-2.055,3.813-3.091L115.9,283.563c-2.114-0.495-3.667-2.299-3.843-4.464c-0.176-2.164,1.064-4.194,3.071-5.025    l31.806-13.169l-37.665-47.549c-1.275-1.61-1.436-3.835-0.406-5.612c1.03-1.777,3.042-2.743,5.073-2.436l60.046,9.074l-4.71-33.96    c-0.299-2.157,0.832-4.259,2.796-5.198c1.965-0.938,4.311-0.498,5.801,1.088l33.354,35.521l-17.297-81.128    c-0.437-2.05,0.451-4.156,2.225-5.273c1.773-1.117,4.056-1.01,5.717,0.27l27.048,21.017L248.778,97H66v232.231l185.078,146.114    L446,329.154V97H263.191L282.82,146.729z"/><path d="M305.428,141.875l-21.802,16.648c-1.245,0.953-2.867,1.264-4.377,0.843c-1.511-0.421-2.736-1.527-3.311-2.986    l-19.966-50.759l-20.215,50.778c-0.58,1.457-1.811,2.558-3.323,2.972c-1.512,0.415-3.132,0.096-4.375-0.861l-21.515-16.581    l18.198,85.354c0.468,2.195-0.584,4.433-2.572,5.473c-1.99,1.042-4.427,0.627-5.963-1.007l-34.873-37.137l3.471,25.027    c0.217,1.563-0.316,3.135-1.438,4.244s-2.701,1.624-4.261,1.387l-54.122-8.178l33.9,42.796c0.974,1.229,1.314,2.844,0.92,4.361    c-0.394,1.518-1.478,2.763-2.927,3.363l-23.569,9.759l69.611,16.308c1.875,0.439,3.332,1.917,3.744,3.799    c0.412,1.883-0.294,3.834-1.815,5.017c-3.96,3.08-7.934,6.303-11.775,9.42c-1.405,1.141-2.828,2.295-4.263,3.452    c17.309,4.598,34.805,7.412,52.137,8.379c1.388,0.077,2.681,0.729,3.568,1.798s1.291,2.632,1.112,4.011L236.9,397h36.864    l-8.204-67.138c-0.169-1.38,0.243-2.853,1.139-3.915c0.895-1.063,2.191-1.749,3.579-1.817c18.704-0.917,37.446-3.733,55.854-8.342    l-18.775-13.133c-1.616-1.13-2.418-3.109-2.046-5.046c0.371-1.937,1.847-3.477,3.766-3.928l69.338-16.303l-23.589-9.767    c-1.451-0.602-2.536-1.851-2.929-3.372s-0.047-3.139,0.934-4.367l34.122-42.773l-54.059,8.169    c-1.552,0.236-3.127-0.274-4.248-1.375c-1.122-1.1-1.661-2.663-1.456-4.221l3.311-25.204l-35.005,37.278    c-1.537,1.638-3.978,2.05-5.969,1.004c-1.989-1.044-3.038-3.287-2.563-5.483L305.428,141.875z"/><polygon points="36,37 36,87 61,87 451,87 476,87 476,37   "/></g></g><g id="Layer_1"/></svg>